<svg xmlns="http://www.w3.org/2000/svg" height="48" viewBox="0 96 960 960" width="48"><path d="M218.169 770q-79.796 0-135.983-56.985Q26 656.029 26 575.519q0-79.928 56.19-136.724Q138.383 382 218.07 382q30.968 0 59.949 10.88Q307 403.76 331 426l97.5 83.5-16 14.5-94.5-83q-22.5-17.8-47.766-27.4-25.266-9.6-52.376-9.6-72.127 0-120.992 50.162Q48 504.323 48 575.455q0 71.717 48.84 122.131Q145.678 748 217.786 748q27.213 0 52.713-9.6t47.633-27.522l311.018-284.876q22.784-22.275 52.141-33.139Q710.649 382 741.719 382q80.136 0 136.208 56.665Q934 495.33 934 574.692q0 80.781-56.191 138.045Q821.618 770 741.93 770q-31.254 0-59.592-11.88Q654 746.24 629 727l-94.5-85.5 15-14.5 93.41 83.8Q663 730 688.75 739q25.75 9 53.46 9 72.099 0 120.944-50.662Q912 646.677 912 574.533q0-70.73-49.441-120.632Q813.118 404 742.229 404q-27.13 0-52.68 9.35-25.549 9.35-46.682 27.772L330.849 726.998q-23.284 22.275-52.515 32.639Q249.102 770 218.169 770Z"/></svg>